<svg width="28" height="32" viewBox="0 0 28 32" fill="none" xmlns="http://www.w3.org/2000/svg">
<path fill-rule="evenodd" clip-rule="evenodd" d="M0.133333 3.2C0.133333 1.43269 1.56602 0 3.33333 0H20.8418L27.8667 7.02483V28.8C27.8667 30.5673 26.4339 32 24.6667 32H3.33333C1.56602 32 0.133333 30.5673 0.133333 28.8V3.2ZM12.9333 8.53333H6.53333V10.6667H12.9333V8.53333ZM21.4667 14.9333H6.53333V17.0667H21.4667V14.9333ZM11.45 23.27C10.5885 23.5014 9.91565 24.1594 9.67855 24.8706L7.65468 24.1961C8.1287 22.774 9.37587 21.6183 10.8965 21.2098C12.4051 20.8045 14.125 21.144 15.6141 22.5139C16.0615 22.3823 16.5047 22.3083 16.9429 22.2848C18.0921 22.2231 19.1249 22.5131 20.0102 22.8819C20.6605 23.1529 21.2909 23.4955 21.821 23.7835C21.9902 23.8754 22.1495 23.962 22.2957 24.0388C22.9854 24.4009 23.3649 24.5333 23.6 24.5333V26.6667C22.7682 26.6667 21.9477 26.2656 21.3041 25.9277C21.1055 25.8234 20.9133 25.719 20.7236 25.616C20.2174 25.341 19.7293 25.0761 19.1897 24.8512C18.475 24.5534 17.7745 24.3765 17.057 24.4151C16.9527 24.4207 16.8463 24.4309 16.7376 24.4465L16.7401 24.4749C16.7971 25.1678 16.5111 25.7376 16.1428 26.1468C15.4632 26.902 14.356 27.2981 13.5241 27.4494C13.0908 27.5281 12.6246 27.5612 12.2142 27.5012C12.0134 27.4718 11.7543 27.4101 11.5103 27.2649C11.2508 27.1104 10.9433 26.8149 10.8645 26.342C10.7911 25.9021 10.9567 25.5394 11.1014 25.3165C11.2506 25.0865 11.4516 24.8877 11.6592 24.7159C12.0633 24.3812 12.652 24.0194 13.4386 23.6215L13.496 23.5799C12.753 23.1458 12.0394 23.1117 11.45 23.27Z" fill="#75CBCD"/>
</svg>
